<?xml version="1.0" encoding="UTF-8" standalone="no"?>
<!-- Created with Inkscape (http://www.inkscape.org/) -->

<svg
   width="145mm"
   height="142mm"
   viewBox="0 0 145 142"
   version="1.1"
   id="svg5"
   inkscape:version="1.1.1 (3bf5ae0d25, 2021-09-20)"
   sodipodi:docname="logorayo.svg"
   xmlns:inkscape="http://www.inkscape.org/namespaces/inkscape"
   xmlns:sodipodi="http://sodipodi.sourceforge.net/DTD/sodipodi-0.dtd"
   xmlns="http://www.w3.org/2000/svg"
   xmlns:svg="http://www.w3.org/2000/svg">
  <sodipodi:namedview
     id="namedview7"
     pagecolor="#ffffff"
     bordercolor="#666666"
     borderopacity="1.0"
     inkscape:pageshadow="2"
     inkscape:pageopacity="0.0"
     inkscape:pagecheckerboard="0"
     inkscape:document-units="mm"
     showgrid="false"
     inkscape:zoom="0.74118968"
     inkscape:cx="167.9732"
     inkscape:cy="447.25393"
     inkscape:window-width="1920"
     inkscape:window-height="1017"
     inkscape:window-x="-8"
     inkscape:window-y="-8"
     inkscape:window-maximized="1"
     inkscape:current-layer="g2807"
     width="110mm"
     inkscape:snap-path-clip="true"
     guidetolerance="1"
     objecttolerance="10000"
     height="143mm" />
  <defs
     id="defs2" />
  <g
     inkscape:label="Capa 1"
     inkscape:groupmode="layer"
     id="layer1">
    <g
       id="g2807"
       transform="translate(-38.552888,-18.205525)">
      <path
         style="fill:#9fe9d7;stroke-width:0.282222"
         d="m 143.59289,157.54056 c 0,-0.38805 0.0641,-0.5468 0.14235,-0.35278 0.0783,0.19403 0.0783,0.51153 0,0.70556 -0.0783,0.19403 -0.14235,0.0353 -0.14235,-0.35278 z m -33.55845,-3.29899 c 0.27164,-0.071 0.71614,-0.071 0.98778,0 0.27164,0.071 0.0494,0.12907 -0.49389,0.12907 -0.54328,0 -0.76553,-0.0581 -0.49389,-0.12907 z m 4.16278,0.0836 c 0,-0.061 0.1971,-0.18655 0.43799,-0.27899 0.25116,-0.0964 0.36444,-0.0491 0.26557,0.11092 -0.16574,0.26817 -0.70356,0.39665 -0.70356,0.16807 z m -7.12611,-0.35822 c 0.19403,-0.0783 0.51153,-0.0783 0.70556,0 0.19402,0.0783 0.0353,0.14235 -0.35278,0.14235 -0.38806,0 -0.54681,-0.0641 -0.35278,-0.14235 z m -1.67569,-0.2881 c 0.20372,-0.0815 0.44714,-0.0715 0.54092,0.0223 0.0938,0.0938 -0.0729,0.16048 -0.37041,0.14823 -0.32878,-0.0136 -0.39565,-0.0804 -0.17051,-0.17051 z m 28.55736,-1.5172 c 0,-0.16438 0.127,-0.22038 0.28222,-0.12445 0.15522,0.0959 0.28222,0.23043 0.28222,0.29888 0,0.0685 -0.127,0.12445 -0.28222,0.12445 -0.15522,0 -0.28222,-0.13449 -0.28222,-0.29888 z m -9.82276,-0.6889 c 0.006,-0.46566 0.069,-0.622 0.14056,-0.3474 0.0716,0.27459 0.0669,0.65559 -0.0105,0.84666 -0.0773,0.19108 -0.13586,-0.0336 -0.13011,-0.49926 z m -11.97562,-1.4696 c 0.35106,-0.0675 0.85906,-0.0649 1.12889,0.006 0.26983,0.0706 -0.0174,0.12587 -0.63829,0.12274 -0.62089,-0.003 -0.84166,-0.0609 -0.4906,-0.12844 z m -3.38996,-0.26953 c 0.19403,-0.0783 0.51153,-0.0783 0.70556,0 0.19403,0.0783 0.0353,0.14235 -0.35278,0.14235 -0.38805,0 -0.5468,-0.0641 -0.35278,-0.14235 z m -2.24014,-0.2881 c 0.20373,-0.0815 0.44715,-0.0715 0.54093,0.0223 0.0938,0.0938 -0.0729,0.16048 -0.37041,0.14823 -0.32878,-0.0136 -0.39565,-0.0804 -0.17052,-0.17051 z m 0.86359,-8.76777 c -0.35105,-0.44762 -0.34107,-0.4576 0.10655,-0.10655 0.27164,0.21303 0.49389,0.43528 0.49389,0.49389 0,0.23228 -0.23176,0.0828 -0.60044,-0.38734 z m 2.85822,0.38734 c 0,-0.0586 0.22225,-0.28086 0.49389,-0.49389 0.44762,-0.35105 0.4576,-0.34107 0.10655,0.10655 -0.36868,0.47012 -0.60044,0.61962 -0.60044,0.38734 z m 47.13111,-0.84667 c 0,-0.0586 0.22225,-0.28085 0.49389,-0.49389 0.44762,-0.35105 0.4576,-0.34106 0.10655,0.10656 -0.36868,0.47011 -0.60044,0.61961 -0.60044,0.38733 z m -84.984886,-1.234 c -0.351048,-0.44762 -0.341065,-0.4576 0.106556,-0.10655 0.271639,0.21303 0.493889,0.43528 0.493889,0.49388 0,0.23228 -0.231758,0.0828 -0.600445,-0.38733 z m 66.120556,-0.35278 c 0,-0.38805 0.0641,-0.5468 0.14235,-0.35277 0.0783,0.19402 0.0783,0.51152 0,0.70555 -0.0783,0.19403 -0.14235,0.0353 -0.14235,-0.35278 z m 20.55766,0.17567 c 0,-0.0586 0.22225,-0.28085 0.49389,-0.49389 0.44762,-0.35105 0.4576,-0.34106 0.10656,0.10656 -0.36869,0.47011 -0.60045,0.61961 -0.60045,0.38733 z m -88.921355,-1.79844 -0.684194,-0.77612 0.776111,0.6842 c 0.725393,0.63948 0.905536,0.86803 0.684194,0.86803 -0.05055,0 -0.399801,-0.34925 -0.776111,-0.77611 z m 64.509135,0.21166 c 0.28095,-0.31044 0.57432,-0.56444 0.65193,-0.56444 0.0776,0 -0.0888,0.254 -0.36971,0.56444 -0.28095,0.31045 -0.57431,0.56445 -0.65192,0.56445 -0.0776,0 0.0887,-0.254 0.3697,-0.56445 z m 27.23444,-0.98778 c 0.52657,-0.54327 1.02089,-0.98777 1.09851,-0.98777 0.0776,0 -0.28972,0.4445 -0.81628,0.98777 -0.52657,0.54328 -1.02089,0.98778 -1.09851,0.98778 -0.0776,0 0.28972,-0.4445 0.81628,-0.98778 z m -5.92666,-0.52988 c 0,-0.0586 0.22225,-0.28086 0.49389,-0.49389 0.44762,-0.35105 0.4576,-0.34107 0.10655,0.10655 -0.36868,0.47011 -0.60044,0.61962 -0.60044,0.38734 z m -82.444887,-1.51623 c -0.351048,-0.44762 -0.341066,-0.4576 0.106556,-0.10655 0.271639,0.21303 0.493889,0.43528 0.493889,0.49389 0,0.23228 -0.231758,0.0828 -0.600445,-0.38734 z m 85.125997,-0.91722 c 0.60628,-0.62089 1.16583,-1.12889 1.24344,-1.12889 0.0776,0 -0.35494,0.508 -0.96122,1.12889 -0.60628,0.62089 -1.16583,1.12889 -1.24344,1.12889 -0.0776,0 0.35494,-0.508 0.96122,-1.12889 z m 5.50333,0.75836 c 0,-0.0486 0.41275,-0.46132 0.91722,-0.91722 l 0.91723,-0.82892 -0.82892,0.91723 c -0.77266,0.85498 -1.00553,1.04694 -1.00553,0.82891 z m -98.792964,-1.81669 -0.972584,-1.05834 1.058333,0.97259 c 0.985074,0.90526 1.188095,1.14408 0.972585,1.14408 -0.04716,0 -0.523412,-0.47625 -1.058334,-1.05833 z m 95.970744,-1.56998 c 0,-0.0486 0.41275,-0.46132 0.91722,-0.91722 l 0.91722,-0.82891 -0.82891,0.91722 c -0.77266,0.85498 -1.00553,1.04694 -1.00553,0.82891 z m 5.92667,-0.0183 c 0,-0.0586 0.22225,-0.28085 0.49388,-0.49389 0.44763,-0.35105 0.45761,-0.34106 0.10656,0.10656 -0.36869,0.47012 -0.60044,0.61963 -0.60044,0.38735 z M 63.361225,129.95334 c -0.351048,-0.44762 -0.341066,-0.4576 0.106554,-0.10656 0.271639,0.21304 0.493889,0.43529 0.493889,0.49389 0,0.23228 -0.231757,0.0828 -0.600443,-0.38733 z m 4.812415,-1.12889 -0.684194,-0.77611 0.776111,0.68419 c 0.725393,0.63949 0.905535,0.86803 0.684194,0.86803 -0.05055,0 -0.399802,-0.34925 -0.776111,-0.77611 z m -1.707971,-1.97555 c -0.351048,-0.44763 -0.341066,-0.45761 0.106555,-0.10656 0.271639,0.21304 0.493888,0.43529 0.493888,0.49389 0,0.23228 -0.231756,0.0828 -0.600443,-0.38733 z M 49.026172,99.802602 c 0.01354,-0.328775 0.08042,-0.395647 0.170509,-0.17051 0.08153,0.203728 0.0715,0.447148 -0.02228,0.540928 -0.09378,0.0938 -0.160483,-0.0729 -0.148229,-0.370418 z M 177.7195,99.238158 c 0.0135,-0.328775 0.0804,-0.395648 0.17051,-0.17051 0.0815,0.203727 0.0715,0.447147 -0.0223,0.540926 -0.0938,0.09378 -0.16048,-0.07291 -0.14823,-0.370416 z m 0.28222,-1.411111 c 0.0135,-0.328775 0.0804,-0.395648 0.17051,-0.17051 0.0815,0.203727 0.0715,0.447147 -0.0223,0.540926 -0.0938,0.09378 -0.16048,-0.07291 -0.14823,-0.370416 z M 52.977283,96.98038 c 0.01354,-0.328775 0.08042,-0.395647 0.170509,-0.17051 0.08153,0.203728 0.0715,0.447147 -0.02228,0.540927 -0.09378,0.09378 -0.160483,-0.07291 -0.148229,-0.370417 z m -0.282222,-1.693333 c 0.01354,-0.328775 0.08042,-0.395647 0.170509,-0.17051 0.08153,0.203727 0.0715,0.447147 -0.02228,0.540927 -0.09378,0.09378 -0.160483,-0.07291 -0.148229,-0.370417 z m -4.493275,-0.96426 c 0,-0.388056 0.06406,-0.546806 0.142349,-0.352778 0.07829,0.194028 0.07829,0.511528 0,0.705555 -0.07829,0.194028 -0.142349,0.03528 -0.142349,-0.352777 z M 178.58844,94.040565 c 0,-0.388056 0.0641,-0.546806 0.14235,-0.352778 0.0783,0.194028 0.0783,0.511528 0,0.705555 -0.0783,0.194028 -0.14235,0.03528 -0.14235,-0.352777 z m 4.51556,-0.282223 c 0,-0.388055 0.0641,-0.546805 0.14235,-0.352777 0.0783,0.194027 0.0783,0.511527 0,0.705555 -0.0783,0.194028 -0.14235,0.03528 -0.14235,-0.352778 z M 52.445577,92.770565 c 0.0058,-0.465667 0.069,-0.622001 0.140558,-0.347407 0.07156,0.274593 0.06685,0.655593 -0.01046,0.846666 -0.07731,0.191073 -0.135854,-0.03359 -0.130102,-0.499259 z m -4.499403,-1.411111 c 0.0031,-0.620889 0.06093,-0.841658 0.128433,-0.490599 0.06751,0.351059 0.06494,0.859059 -0.0057,1.128889 -0.07064,0.26983 -0.12587,-0.0174 -0.122738,-0.63829 z m 130.934956,0 c 0.006,-0.465667 0.069,-0.622001 0.14055,-0.347408 0.0716,0.274594 0.0668,0.655594 -0.0105,0.846667 -0.0773,0.191073 -0.13585,-0.03359 -0.1301,-0.499259 z m 4.54798,-1.411111 c 0.002,-0.931334 0.0543,-1.278309 0.11709,-0.771057 0.0628,0.507252 0.0615,1.269252 -0.003,1.693333 -0.0644,0.424081 -0.11579,0.0091 -0.11421,-0.922276 z M 52.205084,88.537231 c 10e-4,-1.241777 0.05064,-1.714672 0.110261,-1.050874 0.05962,0.663798 0.05878,1.679798 -0.0019,2.257778 -0.06064,0.57798 -0.109423,0.03487 -0.108398,-1.206904 z m -0.0064,-4.092222 c 0,-1.008944 0.05122,-1.421694 0.113826,-0.917222 0.0626,0.504473 0.0626,1.329972 0,1.834445 -0.0626,0.504472 -0.113826,0.09172 -0.113826,-0.917223 z M 183.41853,83.316121 c 0,-0.6985 0.055,-0.98425 0.1223,-0.635 0.0673,0.34925 0.0673,0.92075 0,1.27 -0.0673,0.34925 -0.1223,0.0635 -0.1223,-0.635 z m -4.51556,-1.693334 c 0,-0.6985 0.055,-0.98425 0.12231,-0.635 0.0673,0.34925 0.0673,0.92075 0,1.27 -0.0673,0.34925 -0.12231,0.0635 -0.12231,-0.635 z M 47.930021,81.481676 c 0.0058,-0.465666 0.069,-0.622001 0.140559,-0.347407 0.07156,0.274594 0.06685,0.655594 -0.01046,0.846667 -0.07731,0.191073 -0.135854,-0.03359 -0.130103,-0.49926 z m 4.505098,-1.27 c 0,-0.388055 0.06406,-0.546805 0.142349,-0.352777 0.07829,0.194027 0.07829,0.511527 0,0.705555 -0.07829,0.194028 -0.142349,0.03528 -0.142349,-0.352778 z M 183.104,79.36501 c 0,-0.388056 0.0641,-0.546806 0.14235,-0.352778 0.0783,0.194028 0.0783,0.511528 0,0.705556 -0.0783,0.194027 -0.14235,0.03528 -0.14235,-0.352778 z m -4.51556,-0.564445 c 0,-0.388055 0.0641,-0.546805 0.14235,-0.352777 0.0783,0.194027 0.0783,0.511527 0,0.705555 -0.0783,0.194028 -0.14235,0.03528 -0.14235,-0.352778 z M 48.201786,78.518343 c 0,-0.388055 0.06406,-0.546805 0.142349,-0.352778 0.07829,0.194028 0.07829,0.511528 0,0.705556 -0.07829,0.194028 -0.142349,0.03528 -0.142349,-0.352778 z M 119.18315,77.76575 c -0.10348,-0.10348 -0.18621,-0.32573 -0.18383,-0.493889 0.003,-0.184559 0.092,-0.167668 0.22559,0.04261 0.16522,0.260119 2.29087,0.368489 8.39179,0.427838 l 8.17052,0.07948 -8.20796,0.06605 c -4.51438,0.03633 -8.29263,-0.01863 -8.39611,-0.122095 z m 63.61635,-0.540924 c 0.0136,-0.328775 0.0804,-0.395648 0.17051,-0.170511 0.0815,0.203728 0.0715,0.447145 -0.0223,0.540927 -0.0938,0.09378 -0.16048,-0.07291 -0.14823,-0.370416 z m -4.51556,-0.564445 c 0.0136,-0.328775 0.0804,-0.395647 0.17051,-0.17051 0.0815,0.203728 0.0715,0.447144 -0.0223,0.540927 -0.0938,0.09378 -0.16048,-0.07291 -0.14823,-0.370417 z m 4.23334,-1.411111 c 0.0135,-0.328775 0.0804,-0.395647 0.1705,-0.17051 0.0815,0.203728 0.0715,0.447144 -0.0223,0.540927 -0.0938,0.09378 -0.16049,-0.07291 -0.14823,-0.370417 z M 39.654559,74.92001 c -0.351047,-0.447621 -0.341065,-0.457604 0.106555,-0.106556 0.271639,0.213036 0.493889,0.435286 0.493889,0.493889 0,0.23228 -0.231757,0.08278 -0.600444,-0.387333 z m 9.089391,-0.235184 c 0.01354,-0.328775 0.08042,-0.395648 0.170509,-0.17051 0.08153,0.203727 0.0715,0.447144 -0.02228,0.540926 -0.09378,0.09378 -0.160484,-0.07291 -0.148229,-0.370416 z m -2.280059,-2.481927 c 0,-0.0586 0.22225,-0.280854 0.493889,-0.493889 0.44762,-0.351048 0.457603,-0.341066 0.106555,0.106556 -0.368687,0.470111 -0.600444,0.619613 -0.600444,0.387333 z M 40.819447,71.07401 c 0,-0.0586 0.22225,-0.280853 0.493889,-0.493889 0.44762,-0.351048 0.457603,-0.341065 0.106555,0.106556 -0.368687,0.470112 -0.600444,0.619613 -0.600444,0.387333 z m 8.673629,-1.339576 c 0.191441,-0.192877 0.419168,-0.279589 0.506061,-0.192696 0.08689,0.08689 -0.06974,0.244701 -0.348074,0.350684 -0.402223,0.153156 -0.43464,0.12074 -0.157987,-0.157988 z M 54.030974,61.11 c 0.203729,-0.08153 0.447146,-0.0715 0.540926,0.02227 0.09378,0.09378 -0.07291,0.160483 -0.370416,0.148229 -0.328773,-0.01355 -0.395648,-0.08042 -0.17051,-0.170508 z m 5.344583,-7.049677 c 0.194028,-0.07829 0.511528,-0.07829 0.705556,0 0.194028,0.07829 0.03528,0.14235 -0.352778,0.14235 -0.388055,0 -0.546805,-0.06406 -0.352778,-0.14235 z m -1.094332,-0.589201 c -0.351048,-0.447621 -0.341066,-0.457603 0.106555,-0.106556 0.271639,0.213036 0.493888,0.435286 0.493888,0.493889 0,0.23228 -0.231756,0.08278 -0.600443,-0.387333 z m 2.999332,-0.07055 c 0.280949,-0.310445 0.574315,-0.564445 0.651926,-0.564445 0.07761,0 -0.08875,0.254 -0.369704,0.564445 -0.280948,0.310444 -0.574315,0.564444 -0.651926,0.564444 -0.07761,0 0.08876,-0.254 0.369704,-0.564444 z M 165.22652,46.998889 c 0.20373,-0.08152 0.44715,-0.0715 0.54093,0.02227 0.0938,0.09378 -0.0729,0.160483 -0.37042,0.148228 -0.32877,-0.01355 -0.39564,-0.08042 -0.17051,-0.170507 z m -1.97555,-0.282222 c 0.20373,-0.08152 0.44715,-0.0715 0.54093,0.02227 0.0938,0.09378 -0.0729,0.160483 -0.37042,0.148229 -0.32878,-0.01355 -0.39565,-0.08042 -0.17051,-0.170507 z m -1.97556,-0.282222 c 0.20373,-0.08153 0.44715,-0.0715 0.54093,0.02227 0.0938,0.09378 -0.0729,0.160483 -0.37042,0.148229 -0.32877,-0.01355 -0.39564,-0.08042 -0.17051,-0.170507 z M 66.501668,46.238456 c 0,-0.0586 0.22225,-0.280854 0.493889,-0.493889 0.447621,-0.351048 0.457603,-0.341066 0.106554,0.106556 -0.368686,0.470111 -0.600443,0.619613 -0.600443,0.387333 z m 92.798192,-0.08623 c 0.20373,-0.08153 0.44714,-0.0715 0.54092,0.02227 0.0938,0.09378 -0.0729,0.160483 -0.37041,0.148229 -0.32878,-0.01355 -0.39565,-0.08042 -0.17051,-0.170508 z m -1.97556,-0.282222 c 0.20373,-0.08153 0.44715,-0.0715 0.54093,0.02227 0.0938,0.09378 -0.0729,0.160483 -0.37042,0.148229 -0.32877,-0.01355 -0.39565,-0.08042 -0.17051,-0.170508 z m -1.97555,-0.282223 c 0.20372,-0.08152 0.44714,-0.0715 0.54092,0.02227 0.0938,0.09378 -0.0729,0.160482 -0.37041,0.148228 -0.32878,-0.01355 -0.39565,-0.08042 -0.17051,-0.170507 z m -1.97556,-0.282222 c 0.20373,-0.08153 0.44715,-0.0715 0.54093,0.02227 0.0938,0.09378 -0.0729,0.160483 -0.37042,0.148229 -0.32877,-0.01355 -0.39565,-0.08042 -0.17051,-0.170507 z m -1.97555,-0.282223 c 0.20372,-0.08153 0.44714,-0.0715 0.54092,0.02228 0.0938,0.09378 -0.0729,0.160483 -0.37041,0.148229 -0.32878,-0.01354 -0.39565,-0.08042 -0.17051,-0.170509 z M 69.041668,43.381678 c 0.526564,-0.543277 1.020891,-0.987777 1.098502,-0.987777 0.07761,0 -0.289715,0.4445 -0.81628,0.987777 -0.526564,0.543278 -1.020891,0.987778 -1.098502,0.987778 -0.07761,0 0.289715,-0.4445 0.81628,-0.987778 z m 99.386772,-0.423333 c 0,-0.388055 0.0641,-0.546805 0.14235,-0.352778 0.0783,0.194028 0.0783,0.511528 0,0.705556 -0.0783,0.194028 -0.14235,0.03528 -0.14235,-0.352778 z M 63.397224,43.134013 c 0,-0.05861 0.22225,-0.280855 0.493889,-0.493889 0.44762,-0.351048 0.457602,-0.341066 0.106554,0.106554 -0.368686,0.470111 -0.600443,0.619613 -0.600443,0.387335 z m 84.711226,-0.45789 c 0,-0.388056 0.0641,-0.546806 0.14235,-0.352778 0.0783,0.194028 0.0783,0.511528 0,0.705556 -0.0783,0.194027 -0.14235,0.03528 -0.14235,-0.352778 z m 12.1908,-0.758333 c 0.10664,-0.106639 -0.28494,-0.709889 -0.87018,-1.340556 l -1.06407,-1.146667 1.19944,1.11561 c 1.22097,1.135631 1.45991,1.565501 0.87019,1.565501 -0.1811,0 -0.24201,-0.08725 -0.13538,-0.193888 z m -1.8637,-0.275244 c 0.19403,-0.07829 0.51153,-0.07829 0.70556,0 0.19403,0.07829 0.0353,0.142349 -0.35278,0.142349 -0.38806,0 -0.54681,-0.06406 -0.35278,-0.142349 z m -1.67569,-0.288102 c 0.20373,-0.08153 0.44714,-0.0715 0.54092,0.02228 0.0938,0.09378 -0.0729,0.160483 -0.37041,0.148228 -0.32878,-0.01354 -0.39565,-0.08042 -0.17051,-0.170508 z m 11.38636,-0.371654 c 0,-0.388056 0.0641,-0.546806 0.14235,-0.352778 0.0783,0.194028 0.0783,0.511528 0,0.705555 -0.0783,0.194028 -0.14235,0.03528 -0.14235,-0.352777 z m -13.36192,0.08943 c 0.20373,-0.08153 0.44715,-0.0715 0.54093,0.02228 0.0938,0.09378 -0.0729,0.160483 -0.37042,0.148229 -0.32877,-0.01354 -0.39564,-0.08042 -0.17051,-0.170509 z M 67.771668,38.44279 c 1.390529,-1.397 2.591731,-2.54 2.669342,-2.54 0.07761,0 -0.996591,1.143 -2.38712,2.54 -1.390527,1.397 -2.591731,2.54 -2.669342,2.54 -0.07761,0 0.996593,-1.143 2.38712,-2.54 z m 4.656666,1.552222 c 0.526565,-0.543278 1.020891,-0.987778 1.098502,-0.987778 0.07761,0 -0.289715,0.4445 -0.816279,0.987778 -0.526565,0.543278 -1.020891,0.987778 -1.098502,0.987778 -0.07761,0 0.289715,-0.4445 0.816279,-0.987778 z M 152.80875,40.79 c 0.20372,-0.08153 0.44714,-0.0715 0.54092,0.02228 0.0938,0.09378 -0.0729,0.160483 -0.37041,0.148229 -0.32878,-0.01354 -0.39565,-0.08042 -0.17051,-0.170509 z M 150.11,40.506024 c 0.27164,-0.07099 0.71614,-0.07099 0.98777,0 0.27164,0.07099 0.0494,0.129067 -0.49388,0.129067 -0.54328,0 -0.76553,-0.05808 -0.49389,-0.129067 z m 17.754,-1.49879 c 0,-0.388055 0.0641,-0.546805 0.14235,-0.352778 0.0783,0.194028 0.0783,0.511528 0,0.705556 -0.0783,0.194028 -0.14235,0.03528 -0.14235,-0.352778 z m -11.08723,-0.776111 c -0.35104,-0.44762 -0.34106,-0.457602 0.10656,-0.106554 0.47011,0.368686 0.61961,0.600443 0.38733,0.600443 -0.0586,0 -0.28085,-0.22225 -0.49389,-0.493889 z M 74.827223,37.878345 c 0.28095,-0.310444 0.574317,-0.564444 0.651928,-0.564444 0.07761,0 -0.08876,0.254 -0.369706,0.564444 -0.280949,0.310445 -0.574316,0.564445 -0.651927,0.564445 -0.07761,0 0.08876,-0.254 0.369705,-0.564445 z m 87.744297,-0.352777 -0.53763,-0.635 0.70555,0.561436 c 0.38806,0.308791 0.75847,0.594541 0.82315,0.635 0.0647,0.04046 -0.0109,0.07356 -0.16793,0.07356 -0.15703,0 -0.52745,-0.28575 -0.82314,-0.635 z m 5.01026,-0.493889 c 0,-0.388056 0.0641,-0.546806 0.14235,-0.352778 0.0783,0.194028 0.0783,0.511528 0,0.705555 -0.0783,0.194028 -0.14235,0.03528 -0.14235,-0.352777 z m -4.53784,-0.729074 c 0.0136,-0.328773 0.0804,-0.395648 0.17051,-0.17051 0.0815,0.20373 0.0715,0.447146 -0.0223,0.540926 -0.0938,0.09378 -0.16048,-0.07291 -0.14822,-0.370416 z m -3.16272,-1.175926 c -0.35105,-0.44762 -0.34107,-0.457603 0.10655,-0.106555 0.27164,0.213034 0.49389,0.435284 0.49389,0.493889 0,0.232279 -0.23176,0.08278 -0.60044,-0.387334 z m 7.41834,-0.07056 c 0,-0.388055 0.064,-0.546805 0.14235,-0.352778 0.0783,0.194028 0.0783,0.511528 0,0.705556 -0.0783,0.194028 -0.14235,0.03528 -0.14235,-0.352778 z M 71.722779,34.773901 c 0.280949,-0.310444 0.574316,-0.564444 0.651928,-0.564444 0.07761,0 -0.08876,0.254 -0.369706,0.564444 -0.280949,0.310444 -0.574316,0.564444 -0.651928,0.564444 -0.07761,0 0.08876,-0.254 0.369706,-0.564444 z m 52.679001,-0.564444 c 0,-0.388056 0.0641,-0.546806 0.14235,-0.352778 0.0783,0.194028 0.0783,0.511528 0,0.705555 -0.0783,0.194028 -0.14235,0.03528 -0.14235,-0.352777 z m 38.35994,0.117592 c 0.0136,-0.328772 0.0804,-0.395647 0.17051,-0.170509 0.0815,0.203729 0.0715,0.447146 -0.0223,0.540926 -0.0938,0.09378 -0.16048,-0.07291 -0.14823,-0.370417 z m 4.23334,-1.128889 c 0.0135,-0.328772 0.0804,-0.395647 0.1705,-0.170509 0.0815,0.203729 0.0715,0.447146 -0.0223,0.540926 -0.0938,0.09378 -0.16049,-0.07291 -0.14823,-0.370417 z m -4.51556,-0.846666 c 0.0136,-0.328773 0.0804,-0.395647 0.17051,-0.170509 0.0815,0.203729 0.0715,0.447145 -0.0223,0.540926 -0.0938,0.09378 -0.16048,-0.07291 -0.14823,-0.370417 z m -40.43297,-0.592605 c 0.20372,-0.08153 0.44714,-0.0715 0.54092,0.02228 0.0938,0.09378 -0.0729,0.160484 -0.37041,0.148229 -0.32878,-0.01354 -0.39565,-0.08042 -0.17051,-0.170509 z m 44.6663,-0.536284 c 0.0136,-0.328773 0.0804,-0.395647 0.17051,-0.170509 0.0815,0.203729 0.0715,0.447145 -0.0223,0.540926 -0.0938,0.09378 -0.16048,-0.07291 -0.14823,-0.370417 z m -4.51555,-0.846667 c 0.0135,-0.328772 0.0804,-0.395647 0.17051,-0.170509 0.0815,0.203729 0.0715,0.447146 -0.0223,0.540926 -0.0938,0.09378 -0.16049,-0.07291 -0.14823,-0.370417 z m 4.23333,-1.128888 c 0.0136,-0.328773 0.0804,-0.395648 0.17051,-0.17051 0.0815,0.203729 0.0715,0.447146 -0.0223,0.540926 -0.0938,0.09378 -0.16048,-0.07291 -0.14823,-0.370416 z m -62.72853,-5.108161 c 0.20373,-0.08152 0.44715,-0.0715 0.54093,0.02228 0.0938,0.09378 -0.0729,0.160483 -0.37042,0.148229 -0.32877,-0.01354 -0.39564,-0.08042 -0.17051,-0.17051 z m 1.69334,-0.282222 c 0.20372,-0.08153 0.44714,-0.0715 0.54092,0.02228 0.0938,0.09378 -0.0729,0.160483 -0.37041,0.148228 -0.32878,-0.01354 -0.39565,-0.08042 -0.17051,-0.170509 z m 1.95791,-0.276342 c 0.19403,-0.07829 0.51153,-0.07829 0.70556,0 0.19403,0.07829 0.0353,0.142348 -0.35278,0.142348 -0.38806,0 -0.54681,-0.06406 -0.35278,-0.142348 z m 16.08667,0 c 0.19403,-0.07829 0.51153,-0.07829 0.70555,0 0.19403,0.07829 0.0353,0.142348 -0.35277,0.142348 -0.38806,0 -0.54681,-0.06406 -0.35278,-0.142348 z M 109.75222,23.29047 c 0.27164,-0.07099 0.71614,-0.07099 0.98778,0 0.27164,0.07099 0.0494,0.129066 -0.49389,0.129066 -0.54328,0 -0.76553,-0.05808 -0.49389,-0.129066 z m 11.01204,-10e-4 c 0.27459,-0.07156 0.65559,-0.06685 0.84666,0.01046 0.19108,0.07731 -0.0336,0.135853 -0.49925,0.130101 -0.46567,-0.0058 -0.62201,-0.069 -0.34741,-0.140559 z m -5.50541,-0.286249 c 0.35105,-0.06751 0.85905,-0.06494 1.12888,0.0057 0.26983,0.07064 -0.0174,0.12587 -0.63829,0.122738 -0.62089,-0.0031 -0.84165,-0.06093 -0.49059,-0.128433 z M 103.9843,19.623334 c 0.20373,-0.08153 0.44715,-0.0715 0.54093,0.02228 0.0938,0.09378 -0.0729,0.160483 -0.37041,0.148228 -0.32878,-0.01354 -0.39565,-0.08042 -0.17052,-0.170509 z m 1.6757,-0.276342 c 0.19403,-0.07829 0.51153,-0.07829 0.70555,0 0.19403,0.07829 0.0353,0.142348 -0.35277,0.142348 -0.38806,0 -0.54681,-0.06406 -0.35278,-0.142348 z m 19.49097,-0.0059 c 0.20373,-0.08153 0.44715,-0.0715 0.54093,0.02228 0.0938,0.09378 -0.0729,0.160483 -0.37042,0.148228 -0.32877,-0.01354 -0.39565,-0.08042 -0.17051,-0.170509 z m -17.23319,-0.276343 c 0.19402,-0.07829 0.51152,-0.07829 0.70555,0 0.19403,0.07829 0.0353,0.142349 -0.35278,0.142349 -0.38805,0 -0.5468,-0.06406 -0.35277,-0.142349 z m 14.95777,0 c 0.19403,-0.07829 0.51153,-0.07829 0.70556,0 0.19403,0.07829 0.0353,0.142349 -0.35278,0.142349 -0.38805,0 -0.5468,-0.06406 -0.35278,-0.142349 z m -11.56782,-0.294916 c 0.35106,-0.06751 0.85906,-0.06494 1.12889,0.0057 0.26983,0.07064 -0.0174,0.12587 -0.63829,0.122738 -0.62089,-0.0031 -0.84165,-0.06093 -0.4906,-0.128433 z m 7.90223,0 c 0.35105,-0.06751 0.85905,-0.06494 1.12888,0.0057 0.26983,0.07064 -0.0174,0.12587 -0.63829,0.122738 -0.62088,-0.0031 -0.84165,-0.06093 -0.49059,-0.128433 z"
         id="path2821" />
      <path
         style="fill:#6ee2c5;stroke-width:0.310525"
         d="m 132.65802,159.60555 c 0.24664,-0.0815 0.54133,-0.0715 0.65486,0.0223 0.11356,0.0938 -0.0883,0.16048 -0.44844,0.14823 -0.39803,-0.0136 -0.47898,-0.0804 -0.20642,-0.17051 z m -36.216671,-5.36222 c 0.246641,-0.0815 0.541333,-0.0715 0.654866,0.0223 0.113557,0.0938 -0.08826,0.16048 -0.448442,0.14822 -0.398019,-0.0135 -0.478973,-0.0804 -0.206424,-0.1705 z m -1.046348,-4.22746 c 0.234899,-0.0783 0.619274,-0.0783 0.85416,0 0.234899,0.0783 0.04273,0.14235 -0.427074,0.14235 -0.469797,0 -0.661984,-0.0641 -0.427086,-0.14235 z m 25.368749,-2.05421 c 0,-0.14606 0.12812,-0.33097 0.28472,-0.41092 0.1566,-0.0799 0.28472,0.0396 0.28472,0.26557 0,0.226 -0.12812,0.41092 -0.28472,0.41092 -0.1566,0 -0.28472,-0.11951 -0.28472,-0.26557 z m 5.38125,-11.49245 c 0.2349,-0.0783 0.61927,-0.0783 0.85416,0 0.2349,0.0783 0.0427,0.14235 -0.42708,0.14235 -0.46979,0 -0.66198,-0.0641 -0.42708,-0.14235 z m 33.05625,-1.78865 c 0.34012,-0.31044 0.69527,-0.56444 0.78923,-0.56444 0.0939,0 -0.1075,0.254 -0.44757,0.56444 -0.34013,0.31045 -0.69529,0.56445 -0.78925,0.56445 -0.0939,0 0.10751,-0.254 0.44759,-0.56445 z m 3.75832,-3.38666 c 0.34013,-0.31045 0.69529,-0.56445 0.78925,-0.56445 0.0939,0 -0.1075,0.254 -0.44758,0.56445 -0.34013,0.31044 -0.69528,0.56444 -0.78924,0.56444 -0.0939,0 0.10751,-0.254 0.44757,-0.56444 z m -3.75832,-2.82223 c 0.34012,-0.31044 0.69527,-0.56444 0.78923,-0.56444 0.0939,0 -0.1075,0.254 -0.44757,0.56444 -0.34013,0.31045 -0.69529,0.56445 -0.78925,0.56445 -0.0939,0 0.10751,-0.254 0.44759,-0.56445 z m 24.20236,-42.051105 c 0,-1.164167 0.0603,-1.640417 0.13402,-1.058333 0.0737,0.582083 0.0737,1.534583 0,2.116666 -0.0737,0.582084 -0.13402,0.105834 -0.13402,-1.058333 z m -5.14682,-0.282222 c 0,-0.6985 0.0666,-0.98425 0.14807,-0.635 0.0815,0.34925 0.0815,0.92075 0,1.27 -0.0815,0.34925 -0.14807,0.0635 -0.14807,-0.635 z M 169.28041,54.4229 c 0,-0.0586 0.26906,-0.280854 0.59791,-0.493889 0.54191,-0.351048 0.55399,-0.341066 0.12901,0.106556 -0.44635,0.470111 -0.72692,0.619613 -0.72692,0.387333 z M 42.863758,45.109568 c 0,-0.05861 0.269062,-0.280855 0.597916,-0.493889 0.541904,-0.351048 0.553988,-0.341065 0.128999,0.106555 -0.446342,0.470111 -0.726915,0.619613 -0.726915,0.387334 z m -3.758334,-2.822222 c 0,-0.05861 0.269062,-0.280855 0.597917,-0.493889 0.541903,-0.351048 0.553988,-0.341065 0.128998,0.106555 -0.446343,0.470111 -0.726915,0.619613 -0.726915,0.387334 z M 152.49516,39.07779 c -0.42498,-0.447621 -0.4129,-0.457603 0.129,-0.106555 0.32886,0.213034 0.59792,0.435284 0.59792,0.493889 0,0.232279 -0.28058,0.08278 -0.72692,-0.387334 z m -2.39166,-1.693334 c -0.425,-0.44762 -0.41291,-0.457602 0.12899,-0.106554 0.56913,0.368686 0.75013,0.600443 0.46892,0.600443 -0.0709,0 -0.34001,-0.22225 -0.59791,-0.493889 z m 5.99028,-1.269999 -0.65087,-0.635 0.76875,0.537629 c 0.42281,0.295697 0.76875,0.581447 0.76875,0.635 0,0.22585 -0.27497,0.05911 -0.88663,-0.537629 z m -2.57362,-1.834445 c -0.42499,-0.44762 -0.41291,-0.457602 0.129,-0.106554 0.56913,0.368686 0.75012,0.600443 0.46892,0.600443 -0.0709,0 -0.34002,-0.22225 -0.59792,-0.493889 z m 8.2,-7.055555 c -0.425,-0.44762 -0.4129,-0.457602 0.129,-0.106554 0.32886,0.213033 0.59792,0.435283 0.59792,0.493888 0,0.232279 -0.28058,0.08278 -0.72692,-0.387334 z m -63.591823,-4.22084 c 0.422813,-0.06727 1.114688,-0.06727 1.5375,0 0.422813,0.06727 0.07688,0.122306 -0.76875,0.122306 -0.845625,0 -1.191562,-0.05504 -0.76875,-0.122306 z m 5.124993,0 c 0.42282,-0.06727 1.11469,-0.06727 1.5375,0 0.42282,0.06727 0.0769,0.122306 -0.76875,0.122306 -0.84562,0 -1.19156,-0.05504 -0.76875,-0.122306 z m -4.783329,-4.233333 c 0.422813,-0.06727 1.114688,-0.06727 1.537499,0 0.42281,0.06727 0.0769,0.122306 -0.768749,0.122306 -0.845625,0 -1.191562,-0.05504 -0.76875,-0.122306 z m 4.441669,0 c 0.42281,-0.06727 1.11469,-0.06727 1.5375,0 0.42281,0.06727 0.0769,0.122306 -0.76875,0.122306 -0.84563,0 -1.19156,-0.05504 -0.76875,-0.122306 z"
         id="path2819"
         sodipodi:nodetypes="sscsssscsscsscscssscssccssscsscsscssscssssssssssssssssssssssssssssscsssssssssssssssssssssssssss" />
      <path
         style="fill:#ffd819;fill-opacity:1;stroke-width:0.282222"
         d="m 114.50152,115.20723 c -0.009,-0.23283 0.55232,-4.93183 1.24792,-10.44222 1.46692,-11.62058 1.5069,-12.397944 0.67643,-13.150148 -0.54654,-0.495041 -1.23842,-0.548809 -8.7336,-0.678742 l -8.140039,-0.141111 9.290959,-20.884443 c 5.11003,-11.486444 9.29415,-20.804326 9.29805,-20.706406 0.004,0.09792 -2.15191,8.130931 -4.79069,17.851138 -2.63877,9.720207 -4.79777,17.90144 -4.79777,18.180518 0,1.093656 0.4822,1.184749 6.27138,1.184749 5.53081,0 5.59719,0.0072 5.87174,0.635 0.21555,0.492912 -0.44453,3.760941 -2.94995,14.604995 -1.7752,7.6835 -3.23519,13.7795 -3.24443,13.54667 z"
         id="path2817" />
      <path
         style="fill:#fcbc30;stroke-width:0.282222"
         d="m 113.35055,123.63243 c 0,-0.22976 0.20476,-1.87018 0.45501,-3.64537 0.25025,-1.77518 0.4647,-3.48161 0.47655,-3.79205 0.0118,-0.31045 0.0975,-0.62795 0.19043,-0.70556 0.0929,-0.0776 1.59672,-6.39714 3.34186,-14.0434 2.49424,-10.928437 3.10868,-14.022417 2.87241,-14.463885 -0.28449,-0.531572 -0.59882,-0.5616 -5.87863,-0.5616 -5.69606,0 -6.24519,-0.09774 -6.26311,-1.114778 -0.0122,-0.693019 9.17086,-34.490071 9.26016,-34.080761 0.0441,0.202254 -0.68613,6.480533 -1.62278,13.951734 -0.93665,7.471198 -1.70301,14.096008 -1.70301,14.721796 0,0.80704 0.17956,1.305078 0.61766,1.713236 0.59207,0.551601 0.95579,0.57544 8.77909,0.57544 6.41458,0 8.13189,0.07551 8.02343,0.352778 -0.37738,0.96479 -18.33849,41.29138 -18.43589,41.39259 -0.0622,0.0647 -0.11318,-0.0704 -0.11318,-0.30017 z m 4.39259,-73.535802 c -0.15315,-0.402223 -0.12074,-0.434639 0.15799,-0.157988 0.19288,0.191443 0.27959,0.419168 0.1927,0.506061 -0.0869,0.08689 -0.2447,-0.06974 -0.35069,-0.348073 z"
         id="path2813" />
      <path
         style="fill:#767c83;stroke-width:0.282222"
         d="m 108.76444,141.26699 c 0.19403,-0.0783 0.51153,-0.0783 0.70556,0 0.19403,0.0783 0.0353,0.14235 -0.35278,0.14235 -0.38805,0 -0.5468,-0.0641 -0.35278,-0.14235 z m -1.88271,-2.2355 c 0.0135,-0.32878 0.0804,-0.39565 0.1705,-0.17051 0.0815,0.20373 0.0715,0.44715 -0.0223,0.54093 -0.0938,0.0938 -0.16049,-0.0729 -0.14823,-0.37042 z m 0.28222,-2.25778 c 0.0135,-0.32877 0.0804,-0.39565 0.1705,-0.17051 0.0815,0.20373 0.0715,0.44715 -0.0223,0.54093 -0.0938,0.0938 -0.16049,-0.0729 -0.14823,-0.37042 z m 0.28222,-2.25778 c 0.0136,-0.32877 0.0804,-0.39564 0.17051,-0.17051 0.0815,0.20373 0.0715,0.44715 -0.0223,0.54093 -0.0938,0.0938 -0.16048,-0.0729 -0.14823,-0.37042 z m 0.28222,-2.25777 c 0.0135,-0.32878 0.0804,-0.39565 0.17051,-0.17051 0.0815,0.20372 0.0715,0.44714 -0.0223,0.54092 -0.0938,0.0938 -0.16048,-0.0729 -0.14823,-0.37041 z m 0.28222,-2.25778 c 0.0135,-0.32878 0.0804,-0.39565 0.17051,-0.17051 0.0815,0.20373 0.0715,0.44715 -0.0223,0.54092 -0.0938,0.0938 -0.16048,-0.0729 -0.14822,-0.37041 z m 0.28223,-2.25778 c 0.0135,-0.32877 0.0804,-0.39565 0.1705,-0.17051 0.0815,0.20373 0.0715,0.44715 -0.0223,0.54093 -0.0938,0.0938 -0.16049,-0.0729 -0.14823,-0.37042 z m 0.28222,-2.25778 c 0.0136,-0.32877 0.0804,-0.39564 0.17051,-0.17051 0.0815,0.20373 0.0715,0.44715 -0.0223,0.54093 -0.0938,0.0938 -0.16048,-0.0729 -0.14823,-0.37042 z m 4.49327,-1.24648 c 0,-0.15522 0.1345,-0.28222 0.29888,-0.28222 0.16438,0 0.22039,0.127 0.12446,0.28222 -0.0959,0.15522 -0.23043,0.28222 -0.29888,0.28222 -0.0684,0 -0.12446,-0.127 -0.12446,-0.28222 z m -4.21105,-1.01129 c 0.0135,-0.32878 0.0804,-0.39565 0.17051,-0.17051 0.0815,0.20372 0.0715,0.44714 -0.0223,0.54092 -0.0938,0.0938 -0.16048,-0.0729 -0.14823,-0.37041 z m 0.28222,-2.25778 c 0.0135,-0.32878 0.0804,-0.39565 0.17051,-0.17051 0.0815,0.20373 0.0715,0.44714 -0.0223,0.54092 -0.0938,0.0938 -0.16048,-0.0729 -0.14823,-0.37041 z m 0.28222,-2.25778 c 0.0136,-0.32877 0.0804,-0.39565 0.17051,-0.17051 0.0815,0.20373 0.0715,0.44715 -0.0223,0.54093 -0.0938,0.0938 -0.16049,-0.0729 -0.14823,-0.37042 z m 4.51556,-1.41111 c 0.0135,-0.32878 0.0804,-0.39565 0.17051,-0.17051 0.0815,0.20373 0.0715,0.44715 -0.0223,0.54093 -0.0938,0.0938 -0.16048,-0.0729 -0.14823,-0.37042 z m -4.23333,-0.84667 c 0.0135,-0.32877 0.0804,-0.39564 0.1705,-0.17051 0.0815,0.20373 0.0715,0.44715 -0.0223,0.54093 -0.0938,0.0938 -0.16049,-0.0729 -0.14823,-0.37042 z m 4.51555,-1.41111 c 0.0136,-0.32877 0.0804,-0.39565 0.17051,-0.17051 0.0815,0.20373 0.0715,0.44715 -0.0223,0.54093 -0.0938,0.0938 -0.16048,-0.0729 -0.14823,-0.37042 z m -4.23333,-0.84667 c 0.0135,-0.32877 0.0804,-0.39564 0.17051,-0.17051 0.0815,0.20373 0.0715,0.44715 -0.0223,0.54093 -0.0938,0.0938 -0.16048,-0.0729 -0.14823,-0.37042 z m 4.51555,-1.41111 c 0.0135,-0.32877 0.0804,-0.39564 0.17051,-0.17051 0.0815,0.20373 0.0715,0.44715 -0.0223,0.54093 -0.0938,0.0938 -0.16048,-0.0729 -0.14822,-0.37042 z m -4.23333,-0.84666 c 0.0136,-0.32878 0.0804,-0.39565 0.17051,-0.17051 0.0815,0.20372 0.0715,0.44714 -0.0223,0.54092 -0.0938,0.0938 -0.16048,-0.0729 -0.14823,-0.37041 z m 4.51556,-1.41111 c 0.0135,-0.32878 0.0804,-0.39565 0.1705,-0.17051 0.0815,0.20372 0.0715,0.44714 -0.0223,0.54092 -0.0938,0.0938 -0.16049,-0.0729 -0.14823,-0.37041 z m -4.23334,-0.84667 c 0.0135,-0.32878 0.0804,-0.39565 0.17051,-0.17051 0.0815,0.20373 0.0715,0.44715 -0.0223,0.54093 -0.0938,0.0938 -0.16048,-0.0729 -0.14822,-0.37042 z m 4.51556,-1.41111 c 0.0135,-0.32878 0.0804,-0.39565 0.17051,-0.17051 0.0815,0.20373 0.0715,0.44715 -0.0223,0.54093 -0.0938,0.0938 -0.16048,-0.0729 -0.14823,-0.37042 z m -4.23333,-0.84667 c 0.0135,-0.32877 0.0804,-0.39565 0.1705,-0.17051 0.0815,0.20373 0.0715,0.44715 -0.0223,0.54093 -0.0938,0.0938 -0.16049,-0.0729 -0.14823,-0.37042 z m 4.51555,-1.41111 c 0.0136,-0.32877 0.0804,-0.39565 0.17051,-0.17051 0.0815,0.20373 0.0715,0.44715 -0.0223,0.54093 -0.0938,0.0938 -0.16048,-0.0729 -0.14823,-0.37042 z m -4.23333,-0.84667 c 0.0135,-0.32877 0.0804,-0.39564 0.17051,-0.17051 0.0815,0.20373 0.0715,0.44715 -0.0223,0.54093 -0.0938,0.0938 -0.16048,-0.0729 -0.14823,-0.37042 z m 4.51555,-1.41111 c 0.0135,-0.32877 0.0804,-0.39564 0.17051,-0.17051 0.0815,0.20373 0.0715,0.44715 -0.0223,0.54093 -0.0938,0.0938 -0.16048,-0.0729 -0.14823,-0.37042 z m -4.23333,-0.84666 c 0.0136,-0.32878 0.0804,-0.39565 0.17051,-0.17051 0.0815,0.20372 0.0715,0.44714 -0.0223,0.54092 -0.0938,0.0938 -0.16048,-0.0729 -0.14823,-0.37041 z m 4.51556,-1.41111 c 0.0135,-0.32878 0.0804,-0.39565 0.1705,-0.17051 0.0815,0.20372 0.0715,0.44714 -0.0223,0.54092 -0.0938,0.0938 -0.16049,-0.0729 -0.14823,-0.37041 z m -4.23334,-0.84667 c 0.0135,-0.32878 0.0804,-0.39565 0.17051,-0.17051 0.0815,0.20373 0.0715,0.44715 -0.0223,0.54093 -0.0938,0.0938 -0.16048,-0.0729 -0.14823,-0.37042 z m 4.51556,-1.411112 c 0.0135,-0.328775 0.0804,-0.395648 0.17051,-0.17051 0.0815,0.203727 0.0715,0.447147 -0.0223,0.540926 -0.0938,0.09378 -0.16048,-0.07291 -0.14823,-0.370416 z m -4.23334,-0.846667 c 0.0135,-0.328775 0.0804,-0.395647 0.17051,-0.17051 0.0815,0.203728 0.0715,0.447147 -0.0223,0.540927 -0.0938,0.09378 -0.16048,-0.07291 -0.14822,-0.370417 z m 4.51556,-1.411111 c 0.0136,-0.328775 0.0804,-0.395647 0.17051,-0.17051 0.0815,0.203728 0.0715,0.447147 -0.0223,0.540927 -0.0938,0.09378 -0.16048,-0.07291 -0.14823,-0.370417 z m -4.23333,-0.846667 c 0.0135,-0.328774 0.0804,-0.395647 0.1705,-0.17051 0.0815,0.203728 0.0715,0.447148 -0.0223,0.540927 -0.0938,0.09378 -0.16049,-0.07291 -0.14823,-0.370417 z M 100.033,95.240483 c 2.37673,-0.04725 6.18673,-0.04715 8.46667,2.31e-4 2.27993,0.04738 0.33533,0.08605 -4.32134,0.08592 -4.656664,-1.27e-4 -6.522065,-0.03889 -4.14533,-0.08615 z m -5.627334,-0.564919 c -0.351047,-0.447621 -0.341065,-0.457603 0.106556,-0.106555 0.470112,0.368686 0.619613,0.600444 0.387333,0.600444 -0.0586,0 -0.280853,-0.22225 -0.493889,-0.493889 z m 22.353834,0.04704 c 0.0135,-0.328774 0.0804,-0.395647 0.17051,-0.17051 0.0815,0.203728 0.0715,0.447147 -0.0223,0.540927 -0.0938,0.09378 -0.16048,-0.07291 -0.14823,-0.370417 z m -0.62272,-3.151482 c -0.35105,-0.447621 -0.34107,-0.457603 0.10655,-0.106556 0.47011,0.368687 0.61962,0.600445 0.38734,0.600445 -0.0586,0 -0.28086,-0.22225 -0.49389,-0.493889 z m 20.07377,-13.334999 c -0.25436,-0.164383 -0.28917,-0.275305 -0.0872,-0.277901 0.18487,-0.0023 0.41461,0.122679 0.51055,0.277901 0.21655,0.350387 0.11885,0.350387 -0.42334,0 z M 119.03956,76.54279 c 0,-0.388056 0.0641,-0.546806 0.14235,-0.352778 0.0783,0.194028 0.0783,0.511528 0,0.705555 -0.0783,0.194028 -0.14235,0.03528 -0.14235,-0.352777 z m 0.28222,-2.257778 c 0,-0.388056 0.0641,-0.546805 0.14235,-0.352778 0.0783,0.194028 0.0783,0.511528 0,0.705556 -0.0783,0.194028 -0.14235,0.03528 -0.14235,-0.352778 z m 0.28222,-2.257778 c 0,-0.388055 0.0641,-0.546805 0.14235,-0.352777 0.0783,0.194027 0.0783,0.511527 0,0.705555 -0.0783,0.194028 -0.14235,0.03528 -0.14235,-0.352778 z m 0.28223,-2.257777 c 0,-0.388056 0.0641,-0.546806 0.14235,-0.352778 0.0783,0.194028 0.0783,0.511528 0,0.705555 -0.0783,0.194028 -0.14235,0.03528 -0.14235,-0.352777 z m 0.28222,-2.257778 c 0,-0.388055 0.0641,-0.546805 0.14235,-0.352778 0.0783,0.194028 0.0783,0.511528 0,0.705556 -0.0783,0.194028 -0.14235,0.03528 -0.14235,-0.352778 z m 0.28222,-2.257778 c 0,-0.388055 0.0641,-0.546805 0.14235,-0.352777 0.0783,0.194027 0.0783,0.511527 0,0.705555 -0.0783,0.194028 -0.14235,0.03528 -0.14235,-0.352778 z m 0.28222,-2.257777 c 0,-0.388056 0.0641,-0.546806 0.14235,-0.352778 0.0783,0.194028 0.0783,0.511528 0,0.705556 -0.0783,0.194027 -0.14235,0.03528 -0.14235,-0.352778 z m 0.28222,-2.257778 c 0,-0.388055 0.0641,-0.546805 0.14235,-0.352778 0.0783,0.194028 0.0783,0.511528 0,0.705556 -0.0783,0.194028 -0.14235,0.03528 -0.14235,-0.352778 z m 0.28223,-2.257778 c 0,-0.388055 0.0641,-0.546805 0.14235,-0.352777 0.0783,0.194027 0.0783,0.511527 0,0.705555 -0.0783,0.194028 -0.14235,0.03528 -0.14235,-0.352778 z m 0.28222,-2.257777 c 0,-0.388056 0.0641,-0.546806 0.14235,-0.352778 0.0783,0.194028 0.0783,0.511528 0,0.705556 -0.0783,0.194027 -0.14235,0.03528 -0.14235,-0.352778 z m 0.28222,-2.257778 c 0,-0.388055 0.0641,-0.546805 0.14235,-0.352778 0.0783,0.194028 0.0783,0.511528 0,0.705556 -0.0783,0.194028 -0.14235,0.03528 -0.14235,-0.352778 z m 0.28222,-2.257778 c 0,-0.388055 0.0641,-0.546805 0.14235,-0.352777 0.0783,0.194027 0.0783,0.511527 0,0.705555 -0.0783,0.194028 -0.14235,0.03528 -0.14235,-0.352778 z m 0.28223,-2.257777 c 0,-0.388056 0.064,-0.546806 0.14235,-0.352778 0.0783,0.194028 0.0783,0.511528 0,0.705556 -0.0783,0.194027 -0.14235,0.03528 -0.14235,-0.352778 z m 0.28222,-2.257778 c 0,-0.388055 0.0641,-0.546805 0.14235,-0.352778 0.0783,0.194028 0.0783,0.511528 0,0.705556 -0.0783,0.194028 -0.14235,0.03528 -0.14235,-0.352778 z m 0.28222,-2.257778 c 0,-0.388055 0.0641,-0.546805 0.14235,-0.352777 0.0783,0.194028 0.0783,0.511527 0,0.705555 -0.0783,0.194028 -0.14235,0.03528 -0.14235,-0.352778 z m 0.28222,-2.257777 c 0,-0.388056 0.0641,-0.546806 0.14235,-0.352778 0.0783,0.194028 0.0783,0.511528 0,0.705556 -0.0783,0.194027 -0.14235,0.03528 -0.14235,-0.352778 z m 0.28222,-2.257778 c 0,-0.388055 0.0641,-0.546805 0.14235,-0.352778 0.0783,0.194028 0.0783,0.511528 0,0.705556 -0.0783,0.194028 -0.14235,0.03528 -0.14235,-0.352778 z m 0.28223,-2.257777 c 0,-0.388056 0.0641,-0.546806 0.14235,-0.352778 0.0783,0.194028 0.0783,0.511528 0,0.705555 -0.0783,0.194028 -0.14235,0.03528 -0.14235,-0.352777 z m 0.28222,-2.257778 c 0,-0.388056 0.0641,-0.546806 0.14235,-0.352778 0.0783,0.194028 0.0783,0.511528 0,0.705556 -0.0783,0.194027 -0.14235,0.03528 -0.14235,-0.352778 z"
         id="path2811" />
      <path
         style="fill:#424b53;stroke-width:0.282222"
         d="m 107.70611,140.60723 c -0.31729,-0.31729 -0.56444,-0.94074 -0.56444,-1.42383 0,-0.47266 1.2065,-10.49994 2.68111,-22.28284 1.47461,-11.7829 2.68111,-21.492677 2.68111,-21.577281 0,-0.0846 -3.92778,-0.153826 -8.72841,-0.153826 H 95.047078 L 94.46215,94.425837 c -0.32171,-0.408988 -0.584595,-0.948738 -0.584191,-1.199444 2.82e-4,-0.250706 6.010997,-13.981328 13.356871,-30.512493 10.74912,-24.189851 13.4934,-30.133995 14.05937,-30.452838 0.91793,-0.51712 2.07766,-0.218981 2.67106,0.686671 0.43627,0.665828 0.31115,1.912216 -2.25885,22.502741 -1.49639,11.988827 -2.71861,21.956619 -2.71606,22.150647 0.004,0.274131 1.85773,0.352778 8.31693,0.352778 5.49081,0 8.5457,0.106358 8.99999,0.313343 1.04751,0.477277 1.3837,1.460494 0.93223,2.726371 -1.13065,3.170233 -26.29238,59.269717 -26.76953,59.684167 -0.75876,0.65905 -2.06767,0.62563 -2.76386,-0.0706 z m 15.05175,-37.27202 c 5.07065,-11.419118 9.21936,-20.848868 9.21936,-20.955003 0,-0.106138 -3.62527,-0.192975 -8.05616,-0.192975 h -8.05616 l -0.69273,-0.692729 c -0.46405,-0.464049 -0.68854,-0.999746 -0.68004,-1.622777 0.007,-0.511528 0.87255,-7.758266 1.92348,-16.103862 1.05094,-8.345596 1.82291,-15.076595 1.71551,-14.957777 -0.24185,0.267552 -18.610357,41.626153 -18.609832,41.901974 2.09e-4,0.109601 3.617182,0.236601 8.037722,0.282222 l 8.03734,0.08295 0.7463,0.746721 0.7463,0.746723 -1.88063,15.339943 c -1.03435,8.43697 -1.94797,15.65744 -2.03028,16.0455 -0.0914,0.43109 -0.0504,0.59577 0.1054,0.42333 0.14029,-0.15522 4.40377,-9.62513 9.47442,-21.04424 z"
         id="path2809" />
    </g>
  </g>
</svg>
